<?xml version="1.0" encoding="utf-8"?>
<!-- Generator: Adobe Illustrator 19.0.0, SVG Export Plug-In . SVG Version: 6.00 Build 0)  -->
<svg version="1.0" xmlns="http://www.w3.org/2000/svg" xmlns:xlink="http://www.w3.org/1999/xlink" x="0px" y="0px" width="1400px"
	 height="980px" viewBox="0 0 1400 980" enable-background="new 0 0 1400 980" xml:space="preserve">
<g id="OBJECTS">
	<path id="XMLID_1_" fill="#2D2D2E" d="M1330.6,955.2H69.4c-24.1,0-43.7-19.6-43.7-43.7V68.5c0-24.1,19.6-43.7,43.7-43.7h1261.2
		c24.1,0,43.7,19.6,43.7,43.7v842.9C1374.3,935.6,1354.8,955.2,1330.6,955.2z"/>
	<path id="XMLID_33_" fill="#2DAAE0" d="M-403.8,812.6c-0.1,0-0.2,0-0.3-0.1c0,0,0-0.1-0.1-0.2C-404.1,812.5-404,812.6-403.8,812.6
		C-403.9,812.7-403.8,812.6-403.8,812.6z"/>
	<g id="XMLID_45_">
		<g id="XMLID_25_">
			<circle id="XMLID_3_" opacity="0.85" fill="#231F20" cx="239.4" cy="389.9" r="115.3"/>
			<linearGradient id="XMLID_55_" gradientUnits="userSpaceOnUse" x1="173.1863" y1="449.0512" x2="335.9781" y2="298.1296">
				<stop  offset="0" style="stop-color:#1C3361"/>
				<stop  offset="0.5255" style="stop-color:#3C5A99"/>
				<stop  offset="1" style="stop-color:#6E92DB"/>
			</linearGradient>
			<circle id="XMLID_2_" fill="url(#XMLID_55_)" cx="255.2" cy="373" r="115.3"/>
			<circle id="XMLID_4_" fill="#3C5A99" cx="255.2" cy="373" r="100.6"/>
			<path id="XMLID_5_" fill="#FFFFFF" d="M223.2,380.3c5.4,0,10.9,0,16.3,0c0.7,0,0.8,0.2,0.8,0.8c0,17.3,0,34.6,0,51.9
				c0,0.1,0,0.2,0,0.3h21.8c0-0.1,0-0.2,0-0.3c0-17.3,0-34.7,0-52c0-0.6,0.2-0.8,0.8-0.8c5.4,0,10.9,0,16.3,0c0.7,0,0.9-0.2,1-0.8
				c0.3-2.8,0.7-5.6,1.1-8.3c0.4-3.2,0.8-6.4,1.2-9.5c0.1-0.8,0.2-1.5,0.3-2.4c-0.4,0-0.7,0-0.9,0c-6.3,0-12.7,0-19,0
				c-0.6,0-0.8-0.1-0.8-0.8c0-4.8,0-9.6,0.1-14.5c0-1,0.2-2,0.5-3c0.8-2.8,2.9-4.4,5.7-4.9c1.7-0.3,3.4-0.4,5.1-0.4
				c3.1-0.1,6.3,0,9.4,0c0.6,0,0.8-0.2,0.8-0.8c0-5.8,0-11.6,0-17.3c0-0.7-0.3-0.8-0.9-0.9c-5.6-0.6-11.2-0.8-16.8-0.7
				c-5.6,0.1-10.8,1.5-15.4,4.9c-5,3.6-7.8,8.5-9.2,14.4c-0.7,3-0.9,6.1-1,9.1c0,4.6,0,9.3,0,13.9c0,0.7-0.2,0.9-0.9,0.9
				c-5.4,0-10.8,0-16.2,0c-0.3,0-0.6,0-0.9,0c0,0.3,0,0.6,0,0.8c0,6.5,0,12.9,0,19.4C222.3,380.1,222.6,380.3,223.2,380.3z"/>
		</g>
		<g id="XMLID_29_">
			<circle id="XMLID_10_" opacity="0.85" fill="#231F20" cx="541.3" cy="389.9" r="115.3"/>
			<linearGradient id="XMLID_56_" gradientUnits="userSpaceOnUse" x1="467.9962" y1="270.7528" x2="613.0562" y2="437.1782">
				<stop  offset="0" style="stop-color:#FED469"/>
				<stop  offset="0.3459" style="stop-color:#EA5A45"/>
				<stop  offset="0.699" style="stop-color:#D22A83"/>
				<stop  offset="1" style="stop-color:#4F5BD5"/>
			</linearGradient>
			<circle id="XMLID_9_" fill="url(#XMLID_56_)" cx="557.1" cy="373" r="115.3"/>
			<linearGradient id="XMLID_57_" gradientUnits="userSpaceOnUse" x1="612.8456" y1="458.1102" x2="489.151" y2="269.1949">
				<stop  offset="0" style="stop-color:#FED469"/>
				<stop  offset="0.3459" style="stop-color:#EA5A45"/>
				<stop  offset="0.699" style="stop-color:#D22A83"/>
				<stop  offset="1" style="stop-color:#4F5BD5"/>
			</linearGradient>
			<circle id="XMLID_8_" fill="url(#XMLID_57_)" cx="557.1" cy="373" r="100.6"/>
			<g id="XMLID_11_">
				<path id="XMLID_58_" fill="#FFFFFF" d="M557.1,428.9c-6.7-0.1-13.4-0.2-20.2-0.3c-4-0.1-8-0.3-11.9-1.3
					c-11.6-2.9-19.1-10.1-22.2-21.7c-0.9-3.2-1.2-6.5-1.3-9.9c-0.5-13.3-0.4-26.5-0.2-39.8c0-3.9,0.2-7.8,0.7-11.7
					c1.3-8.6,5-15.8,12.2-20.9c3.7-2.6,7.8-4.1,12.1-5c3.5-0.7,7-0.9,10.5-1c12.5-0.4,25-0.3,37.4-0.1c3.5,0.1,7,0.2,10.5,0.7
					c6.7,0.8,12.8,3.1,17.8,7.8c4.9,4.5,7.6,10.2,8.9,16.6c0.7,3.4,0.9,6.9,1,10.4c0.4,12.5,0.3,24.9,0.1,37.4
					c-0.1,3.6-0.2,7.1-0.7,10.7c-1,8.2-4.3,15.3-10.8,20.6c-4.2,3.4-9,5.3-14.2,6.2c-5,0.9-10.1,0.9-15.2,1c-4.9,0.1-9.9,0-14.8,0
					C557.1,428.8,557.1,428.8,557.1,428.9z M511.5,372.9c-0.1,0-0.1,0-0.2,0c0.1,6.8,0.2,13.6,0.3,20.4c0.1,3.1,0.3,6.2,1,9.3
					c1.1,4.7,3.4,8.6,7.2,11.5c2.8,2.1,5.9,3.1,9.3,3.7c3.3,0.6,6.6,0.7,9.9,0.7c12.9,0.2,25.9,0.3,38.8-0.1c3-0.1,6-0.3,8.9-1
					c4.3-1,7.9-3,10.8-6.4c2.5-2.9,3.8-6.4,4.4-10.1c0.6-3.3,0.7-6.7,0.7-10c0.2-12.9,0.3-25.7-0.1-38.6c-0.1-3-0.3-6-1-9
					c-1.1-4.6-3.3-8.4-7-11.3c-2.8-2.2-6-3.3-9.5-3.9c-3.3-0.6-6.7-0.7-10-0.7c-12.9-0.2-25.8-0.3-38.7,0.1c-3,0.1-6,0.3-9,1
					c-4.6,1.1-8.5,3.3-11.4,7.1c-2.3,3-3.5,6.4-3.9,10.1c-0.4,3.3-0.6,6.7-0.7,10C511.4,361.4,511.5,367.2,511.5,372.9z"/>
				<path id="XMLID_51_" fill="#FFFFFF" d="M557.1,401.7c-15.8,0-28.7-12.9-28.7-28.7c0-15.8,12.9-28.7,28.7-28.7
					c15.8,0,28.7,12.9,28.6,28.7C585.8,388.8,572.9,401.7,557.1,401.7z M557.1,354.4c-10.3,0-18.6,8.3-18.6,18.6
					c0,10.3,8.3,18.6,18.6,18.6c10.3,0,18.7-8.3,18.6-18.6C575.7,362.7,567.4,354.4,557.1,354.4z"/>
				<path id="XMLID_50_" fill="#FFFFFF" d="M586.9,336.5c3.7,0,6.7,3,6.7,6.7c0,3.7-3,6.7-6.7,6.7c-3.7,0-6.7-3-6.7-6.7
					C580.2,339.5,583.2,336.5,586.9,336.5z"/>
			</g>
		</g>
		<g id="XMLID_39_">
			<circle id="XMLID_15_" opacity="0.85" fill="#231F20" cx="844.9" cy="389.9" r="115.3"/>
			<linearGradient id="XMLID_61_" gradientUnits="userSpaceOnUse" x1="953.2015" y1="295.8168" x2="767.2849" y2="450.9972">
				<stop  offset="0" style="stop-color:#99E0FF"/>
				<stop  offset="0.5051" style="stop-color:#2DAAE1"/>
				<stop  offset="0.9949" style="stop-color:#005982"/>
			</linearGradient>
			<circle id="XMLID_14_" fill="url(#XMLID_61_)" cx="860.7" cy="373" r="115.3"/>
			<linearGradient id="XMLID_62_" gradientUnits="userSpaceOnUse" x1="760.1436" y1="373.0072" x2="961.3007" y2="373.0072">
				<stop  offset="0" style="stop-color:#2DAAE1"/>
				<stop  offset="0.5051" style="stop-color:#2DAAE1"/>
				<stop  offset="1" style="stop-color:#2DAAE1"/>
			</linearGradient>
			<circle id="XMLID_13_" fill="url(#XMLID_62_)" cx="860.7" cy="373" r="100.6"/>
			<path id="XMLID_34_" fill="#FFFFFF" d="M809.1,408.7c3.6,0,7.2,0.2,10.7-0.3c8.3-1.1,15.8-4.1,22.8-9.3c-10.5-1-17.7-6.1-21.6-16
				c2.5,0.3,4.8,0.5,7.1,0.2c0.5-0.1,1.1-0.2,1.6-0.3c0.2,0,0.5,0,0.5-0.4c0-0.3-0.3-0.4-0.5-0.4c-0.5-0.2-0.9-0.3-1.4-0.5
				c-8.9-3.1-15-11.4-15.4-20.8c0-0.3,0-0.6,0-1c1.7,0.7,3.2,1.5,4.9,1.9c1.6,0.4,3.2,0.8,5,0.7c-0.2-0.7-0.8-0.9-1.3-1.2
				c-8.3-6.9-10.8-18.1-6.2-27.6c0.8-1.7,0.8-1.7,2-0.3c10.8,12.2,24.3,19.6,40.5,22c1.6,0.2,3.2,0.3,4.8,0.6c1,0.1,1.3-0.2,1.1-1.3
				c-1.7-10.1,3.2-19.7,12.3-24.3c8.7-4.4,19.5-2.9,26.6,3.9c0.7,0.6,1.3,0.9,2.2,0.6c2.3-0.6,4.5-1.2,6.8-2.1
				c2.2-0.8,4.3-1.9,6.7-3.2c-1.8,5.4-5.1,9.2-9.4,12.4c4.2-0.4,8.2-1.6,12.4-3.3c-1.3,2.2-2.7,3.8-4.1,5.4c-1.9,2-3.9,3.9-6.1,5.5
				c-0.8,0.6-1.2,1.2-1.2,2.3c0.1,19.3-6.8,35.7-20.6,49.2c-9.5,9.3-21.1,14.7-34.3,16.7c-16,2.4-31-0.2-45-8.4
				C809.8,409.3,809.2,409.2,809.1,408.7L809.1,408.7z"/>
		</g>
		<g id="XMLID_40_">
			<circle id="XMLID_17_" opacity="0.85" fill="#231F20" cx="1144.8" cy="389.9" r="115.3"/>
			<linearGradient id="XMLID_63_" gradientUnits="userSpaceOnUse" x1="1098.1289" y1="446.0775" x2="1224.0725" y2="298.7685">
				<stop  offset="0" style="stop-color:#751614"/>
				<stop  offset="0.5155" style="stop-color:#B93936"/>
				<stop  offset="1" style="stop-color:#FF7470"/>
			</linearGradient>
			<circle id="XMLID_16_" fill="url(#XMLID_63_)" cx="1160.6" cy="373" r="115.3"/>
			<circle id="XMLID_12_" fill="#B93936" cx="1160.6" cy="373" r="100.6"/>
			<path id="XMLID_36_" fill="#FFFFFF" d="M1153.4,393.7c-0.4,1.5-0.7,2.7-1,4c-1.4,5.5-2.7,11-4.3,16.4c-1.8,6.2-5.1,11.7-8.8,17
				c-1,1.5-2.2,3-3.3,4.5c-0.3,0.5-0.8,0.9-1.4,0.7c-0.6-0.2-0.7-0.8-0.8-1.3c-0.3-3.2-0.7-6.4-0.8-9.6c-0.1-3.1-0.2-6.3,0.1-9.4
				c0.3-3.3,0.9-6.5,1.6-9.7c2.2-9.5,4.5-19,6.7-28.5c0.5-2.3,1.1-4.5,1.6-6.8c0.1-0.6,0.1-1.2-0.1-1.8c-2.2-6.1-2.6-12.3-0.5-18.5
				c1.4-4.1,3.9-7.5,8.1-9.3c3.6-1.5,7.2-1.3,10.4,1.2c1.9,1.6,2.8,3.8,3.2,6.2c0.6,3.7-0.2,7.2-1.2,10.7c-1.5,5.2-3,10.3-4.5,15.5
				c-0.7,2.4-1,4.8-0.2,7.3c1.5,4.3,4.6,6.7,9,7.4c4.7,0.8,8.8-0.8,12.3-3.8c4-3.3,6.4-7.6,8.3-12.3c2-5.2,3.2-10.5,3.5-16.1
				c0.2-2.6,0.3-5.3,0.1-7.9c-0.4-6.3-2.7-11.8-7.1-16.3c-3.2-3.2-7.1-5.3-11.4-6.6c-3.5-1-7-1.5-10.6-1.5c-9,0.1-17.2,2.6-24,8.7
				c-5.6,5-9,11.3-10.4,18.7c-0.4,2.4-0.6,4.9-0.6,7.4c0,4.8,1.4,9.2,4.6,12.9c1.1,1.3,1.5,2.6,1,4.3c-0.5,1.7-0.9,3.4-1.3,5.1
				c-0.6,2.2-2,2.8-4,1.9c-5.5-2.4-9.1-6.7-11.4-12.1c-1.9-4.4-2.6-9.1-2.7-13.9c-0.1-6.7,1.4-13,4.4-19
				c4.4-8.9,11.2-15.5,19.9-20.1c5.5-2.9,11.3-4.6,17.4-5.5c4.1-0.6,8.1-0.8,12.2-0.5c10.6,0.7,20.1,4.2,28.1,11.3
				c6.2,5.6,10.4,12.4,12.4,20.6c1,4.1,1.2,8.2,0.9,12.4c-0.3,5.8-1.3,11.5-3.2,17c-2.3,6.7-5.7,12.7-10.7,17.7
				c-5,5-10.9,8.2-17.9,9.5c-5.4,1-10.7,0.9-15.9-1.5c-2.8-1.3-5.3-3.1-7.2-5.6C1153.9,394.3,1153.7,394.1,1153.4,393.7z"/>
		</g>
		<g id="XMLID_44_">
			<circle id="XMLID_20_" opacity="0.85" fill="#231F20" cx="239.4" cy="707.1" r="115.3"/>
			<linearGradient id="XMLID_64_" gradientUnits="userSpaceOnUse" x1="173.1863" y1="766.1591" x2="335.9781" y2="615.2375">
				<stop  offset="0" style="stop-color:#0573A3"/>
				<stop  offset="0.5051" style="stop-color:#2DAAE1"/>
				<stop  offset="1" style="stop-color:#BFEBFF"/>
			</linearGradient>
			<circle id="XMLID_19_" fill="url(#XMLID_64_)" cx="255.2" cy="690.1" r="115.3"/>
			<circle id="XMLID_18_" fill="#03B4EA" cx="255.2" cy="690.1" r="100.6"/>
			<g id="XMLID_7_">
				<path id="XMLID_22_" fill="#FDFEFE" d="M286.9,760.8c-7.6,0-14.1-1.7-20.2-5.1c-1-0.6-1.9-0.7-3-0.5
					c-12.5,1.5-24.6-0.1-36.1-5.5c-6.1-2.8-11.7-6.5-16.6-11c-8.3-7.5-14.2-16.6-17.9-27.1c-1.8-5.3-3-10.8-3.3-16.4
					c-0.3-4.8-0.2-9.5,0.4-14.3c0.1-0.5,0-1-0.3-1.5c-3-5.1-4.8-10.6-5.3-16.5c-0.9-9.9,1.5-18.9,7.3-26.9
					c6.3-8.7,14.9-14,25.5-15.9c7.9-1.4,15.5-0.4,22.8,2.9c1.3,0.6,2.7,1.3,3.9,2c0.5,0.3,1,0.4,1.5,0.3c4-0.6,8-0.8,12-0.6
					c8.6,0.3,16.8,2.3,24.6,5.8c6.4,2.9,12.2,6.8,17.3,11.5c5.2,4.8,9.5,10.4,13,16.6c3.4,6.2,5.7,12.7,7,19.7
					c0.5,2.7,0.8,5.5,0.9,8.2c0.3,4.4,0,8.8-0.5,13.1c-0.1,0.6,0,1.1,0.3,1.6c3,5.1,4.8,10.6,5.3,16.4c0.9,11.4-2.3,21.4-9.9,30
					c-6.2,7-14,11.2-23.2,12.8C290.5,760.6,288.4,760.9,286.9,760.8z M255.2,732.6c1.9,0.1,3.8-0.1,5.7-0.2
					c5.7-0.5,11.2-1.9,16.3-4.6c3.5-1.9,6.6-4.4,8.9-7.7c3.2-4.5,4.5-9.6,4.3-15.1c-0.1-2.7-0.6-5.4-1.8-7.9
					c-2.3-5-6.4-8.2-11.2-10.5c-5-2.4-10.3-3.8-15.6-5.1c-4.4-1.1-8.9-2-13.3-3.3c-2.5-0.8-4.9-1.8-7.1-3.5
					c-3.1-2.4-3.7-6.4-1.4-9.5c1.8-2.5,4.4-3.7,7.3-4.6c3.1-0.9,6.3-0.7,9.5-0.7c2,0.1,4,0.5,5.9,1.4c3.2,1.5,5.1,4.1,6.9,7
					c0.9,1.5,1.7,3,2.7,4.4c2.3,3.2,6,3.6,9,2.6c4.1-1.4,6.1-5.6,5-10.2c-1-4.4-3.7-7.7-7.1-10.4c-5.9-4.7-12.9-6.4-20.2-6.9
					c-3.2-0.2-6.3-0.2-9.5,0.1c-5.7,0.5-11.2,1.7-16.2,4.5c-7.7,4.2-11.8,10.6-11.5,19.6c0.3,6.6,3.3,11.5,8.6,15.3
					c3.9,2.7,8.2,4.3,12.7,5.7c4.9,1.5,9.9,2.4,14.9,3.6c3,0.7,6,1.5,8.8,3c5.3,2.8,7.2,8.1,4.5,13.1c-1.3,2.5-3.5,4.1-6,5.2
					c-5.4,2.5-11.1,2.6-16.8,1.4c-3.5-0.8-6.4-2.6-8.6-5.6c-1.5-2.1-2.6-4.4-3.6-6.7c-2.1-4.9-5.8-7-10.6-5.8
					c-3.3,0.9-5.6,3.5-5.7,7.3c0,2.3,0.6,4.6,1.6,6.8c3.1,6.6,8.1,11.2,14.8,14.1C242.4,731.8,248.8,732.6,255.2,732.6z"/>
				<path id="XMLID_21_" fill="#03B4EA" d="M255.2,732.6c-6.5,0-12.9-0.7-18.9-3.3c-6.7-2.8-11.7-7.5-14.8-14.1
					c-1-2.1-1.6-4.4-1.6-6.8c0.1-3.8,2.4-6.4,5.7-7.3c4.8-1.3,8.5,0.8,10.6,5.8c1,2.3,2.1,4.6,3.6,6.7c2.1,3,5.1,4.9,8.6,5.6
					c5.7,1.2,11.3,1.1,16.8-1.4c2.5-1.1,4.7-2.7,6-5.2c2.7-5,0.8-10.4-4.5-13.1c-2.8-1.4-5.8-2.2-8.8-3c-5-1.2-10-2.1-14.9-3.6
					c-4.5-1.4-8.9-2.9-12.7-5.7c-5.3-3.8-8.3-8.7-8.6-15.3c-0.4-9,3.8-15.3,11.5-19.6c5-2.8,10.5-3.9,16.2-4.5
					c3.1-0.3,6.3-0.4,9.5-0.1c7.3,0.5,14.3,2.3,20.2,6.9c3.5,2.7,6.1,6,7.1,10.4c1.1,4.6-0.9,8.7-5,10.2c-3,1-6.6,0.7-9-2.6
					c-1-1.4-1.9-2.9-2.7-4.4c-1.7-2.9-3.7-5.5-6.9-7c-1.9-0.9-3.8-1.3-5.9-1.4c-3.2-0.1-6.4-0.3-9.5,0.7c-2.8,0.8-5.5,2.1-7.3,4.6
					c-2.3,3.1-1.7,7.1,1.4,9.5c2.1,1.6,4.5,2.7,7.1,3.5c4.4,1.3,8.9,2.2,13.3,3.3c5.3,1.3,10.6,2.7,15.6,5.1
					c4.8,2.3,8.8,5.5,11.2,10.5c1.2,2.5,1.7,5.2,1.8,7.9c0.3,5.5-1,10.6-4.3,15.1c-2.3,3.3-5.4,5.8-8.9,7.7
					c-5.1,2.7-10.6,4.1-16.3,4.6C259,732.5,257.1,732.6,255.2,732.6z"/>
			</g>
		</g>
		<g id="XMLID_43_">
			<circle id="XMLID_38_" opacity="0.85" fill="#231F20" cx="541.3" cy="701.4" r="115.3"/>
			<linearGradient id="XMLID_65_" gradientUnits="userSpaceOnUse" x1="485.7768" y1="763.489" x2="631.9612" y2="601.5615">
				<stop  offset="0" style="stop-color:#1A50AB"/>
				<stop  offset="0.5102" style="stop-color:#448AFE"/>
				<stop  offset="1" style="stop-color:#A3C5FE"/>
			</linearGradient>
			<circle id="XMLID_37_" fill="url(#XMLID_65_)" cx="557.1" cy="684.5" r="115.3"/>
			<circle id="XMLID_35_" fill="#448AFE" cx="557.1" cy="684.5" r="100.6"/>
			<path id="XMLID_69_" fill="#FFFFFF" d="M514,756.5c0-0.3,0-0.5,0-0.7c0-9.4,0-18.9,0-28.3c0-0.4-0.1-0.7-0.4-0.9
				c-3.4-3.1-6.5-6.6-9.2-10.4c-3-4.3-5.4-8.9-7.1-13.8c-1.3-3.7-2.2-7.5-2.7-11.4c-0.5-3.5-0.6-6.9-0.4-10.4
				c0.2-4.8,1.1-9.4,2.5-14c2.4-7.6,6.2-14.5,11.4-20.5c5.1-6,11.1-10.8,18-14.5c5.9-3.2,12.1-5.4,18.6-6.6c2.8-0.5,5.6-0.9,8.4-1.1
				c2.5-0.2,5-0.2,7.5-0.1c3,0.1,5.9,0.5,8.8,1c6.2,1.2,12.2,3.2,17.8,6.1c4.9,2.5,9.5,5.7,13.6,9.4c4.7,4.3,8.7,9.2,11.9,14.7
				c2.9,5,5,10.3,6.2,15.9c0.7,3,1.1,6,1.3,9c0.2,3.3,0.1,6.5-0.2,9.8c-0.7,6.2-2.3,12.1-5,17.7c-2.4,5.1-5.4,9.8-9.1,14.1
				c-3.7,4.3-7.9,7.9-12.6,11c-6.1,4-12.6,6.9-19.7,8.7c-3.7,0.9-7.5,1.5-11.3,1.8c-2.5,0.2-5,0.2-7.5,0.1c-4.1-0.2-8.1-0.7-12-1.6
				c-0.8-0.2-1.7-0.4-2.5-0.6c-0.2-0.1-0.4,0-0.6,0.1c-7,4.2-14,8.4-21,12.7C517,754.7,515.5,755.6,514,756.5z M596.7,667.2
				C596.7,667.1,596.7,667.1,596.7,667.2c-0.3,0-0.5,0.2-0.8,0.3c-9.5,5.3-18.9,10.5-28.4,15.8c-0.3,0.2-0.5,0.1-0.8-0.1
				c-5.3-5.3-10.6-10.6-15.8-15.9c-0.3-0.3-0.5-0.3-0.8,0c-5.2,5.8-10.5,11.6-15.7,17.3c-5.2,5.7-10.4,11.4-15.6,17.2
				c-0.4,0.4-0.8,0.9-1.2,1.3c0.3,0,0.5-0.2,0.8-0.3c9.5-5.3,18.9-10.5,28.4-15.8c0.4-0.2,0.6-0.1,0.8,0.1
				c5.3,5.3,10.6,10.6,15.8,15.9c0.3,0.3,0.4,0.3,0.7,0c4.6-5.1,9.2-10.2,13.8-15.2c5.9-6.4,11.7-12.9,17.6-19.3
				C595.9,668,596.3,667.6,596.7,667.2z"/>
			<path id="XMLID_68_" fill="#448AFE" d="M596.7,667.2c-0.4,0.4-0.8,0.9-1.2,1.3c-5.9,6.4-11.7,12.9-17.6,19.3
				c-4.6,5.1-9.2,10.1-13.8,15.2c-0.3,0.3-0.4,0.3-0.7,0c-5.3-5.3-10.6-10.6-15.8-15.9c-0.3-0.3-0.5-0.3-0.8-0.1
				c-9.5,5.3-18.9,10.5-28.4,15.8c-0.2,0.1-0.5,0.2-0.8,0.3c0.4-0.4,0.8-0.9,1.2-1.3c5.2-5.7,10.4-11.4,15.6-17.2
				c5.3-5.8,10.5-11.5,15.7-17.3c0.3-0.3,0.5-0.3,0.8,0c5.3,5.3,10.6,10.6,15.8,15.9c0.3,0.3,0.4,0.3,0.8,0.1
				c9.5-5.3,18.9-10.5,28.4-15.8C596.2,667.3,596.4,667.2,596.7,667.2C596.7,667.1,596.7,667.1,596.7,667.2z"/>
		</g>
		<g id="XMLID_42_">
			<circle id="XMLID_32_" opacity="0.85" fill="#231F20" cx="844.9" cy="695.7" r="115.3"/>
			<linearGradient id="XMLID_66_" gradientUnits="userSpaceOnUse" x1="815.1381" y1="726.8378" x2="919.7162" y2="616.6372">
				<stop  offset="0" style="stop-color:#0F7D00"/>
				<stop  offset="0.5149" style="stop-color:#2FBC1D"/>
				<stop  offset="1" style="stop-color:#95FF88"/>
			</linearGradient>
			<circle id="XMLID_31_" fill="url(#XMLID_66_)" cx="860.7" cy="678.8" r="115.3"/>
			<circle id="XMLID_30_" fill="#2FBC1D" cx="860.7" cy="678.8" r="100.6"/>
			<g id="XMLID_6_">
				<path id="XMLID_80_" fill="#FFFFFF" d="M797.3,741.1c2.1-6.3,4.2-12.4,6.3-18.6c1.7-5.1,3.5-10.2,5.2-15.3
					c0.1-0.4,0-1.1-0.2-1.5c-3.5-6-6.1-12.4-7.4-19.2c-4.4-23.2,1.8-43.3,18.7-59.8c10.6-10.4,23.6-16.3,38.4-17.5
					c24.6-2,44.6,7,59.4,26.8c7.1,9.6,11.1,20.5,11.8,32.5c1.4,25.4-8.8,45.3-30,59.2c-12.6,8.3-26.7,11.2-41.7,9.7
					c-8.3-0.8-16.1-3.3-23.5-7.1c-0.7-0.3-1.2-0.4-1.9-0.2c-11.2,3.6-22.5,7.2-33.8,10.7C798.2,740.9,797.9,741,797.3,741.1z
					 M813.7,725.2c0.6-0.1,0.9-0.2,1.2-0.3c6.3-2,12.5-4,18.8-6c0.7-0.2,1.3-0.2,1.9,0.2c6.5,4.1,13.5,6.8,21.1,7.8
					c14.9,2.1,28.5-1.3,40.6-10.2c6.7-4.9,12-11.1,15.9-18.4c5.3-10,7.2-20.7,5.7-31.9c-1.9-14.3-8.6-25.9-19.6-35
					c-8.5-7-18.4-11.1-29.5-12.1c-11.6-1-22.5,1.3-32.6,7.2c-7.2,4.2-13.1,9.7-17.7,16.5c-4.5,6.5-7.3,13.7-8.6,21.4
					c-1,5.9-1,11.9,0,17.8c1.3,7.9,4.3,15.2,9,21.8c0.5,0.8,0.6,1.4,0.3,2.3c-1.3,3.7-2.5,7.4-3.8,11.1
					C815.5,719.9,814.6,722.4,813.7,725.2z"/>
				<path id="XMLID_76_" fill="#FFFFFF" d="M844.5,644c0.3,0,0.6,0,0.8,0c2.2-0.4,3.4,0.8,4.2,2.7c1.6,4,3.3,8,5,12
					c0.7,1.6-0.1,2.9-0.9,4c-1,1.4-2.2,2.7-3.3,4c-1,1.2-1.1,1.9-0.3,3.2c5.2,8.8,12.5,15.1,22.1,18.8c1.3,0.5,2.1,0.3,3.1-0.9
					c1.6-1.9,3.1-3.7,4.6-5.6c1.3-1.6,2-1.9,3.9-1c4.3,2,8.5,4,12.7,6c1,0.5,1.3,1.3,1.3,2.4c0.1,5.8-2.7,9.8-7.9,12.2
					c-3.9,1.8-7.9,2.5-12,1.1c-4.9-1.7-9.9-3.3-14.6-5.4c-5.4-2.4-10-6.2-14.1-10.5c-5.5-5.7-10.5-11.9-13.9-19.1
					c-2.4-5-3-10.2-1-15.5c1.1-3,2.9-5.4,5.3-7.4C840.9,643.9,842.7,643.8,844.5,644z"/>
			</g>
		</g>
		<g id="XMLID_41_">
			<circle id="XMLID_28_" opacity="0.85" fill="#231F20" cx="1144.8" cy="695.7" r="115.3"/>
			<linearGradient id="XMLID_67_" gradientUnits="userSpaceOnUse" x1="1113.644" y1="733.8561" x2="1211.4752" y2="619.1575">
				<stop  offset="0" style="stop-color:#9C1A4B"/>
				<stop  offset="0.5051" style="stop-color:#E64F88"/>
				<stop  offset="1" style="stop-color:#FF9EC3"/>
			</linearGradient>
			<circle id="XMLID_27_" fill="url(#XMLID_67_)" cx="1160.6" cy="678.8" r="115.3"/>
			<circle id="XMLID_26_" fill="#E64F88" cx="1160.6" cy="678.8" r="100.6"/>
			<path id="XMLID_101_" fill="#FFFFFF" d="M1233.3,676.6c-0.3,39.5-31.9,71.7-71.8,71.7c-39.9,0-71.8-32.2-71.7-71.9
				c0.1-39.5,31.9-71.6,71.7-71.6C1201.2,604.8,1233,637.1,1233.3,676.6z M1172.1,686.5c-0.6,0.2-1.1,0.3-1.5,0.5
				c-8.2,3.1-16,7.1-23.2,12.2c-9.1,6.5-16.8,14.4-22.6,24c-0.6,1-0.5,1.4,0.4,2c12.9,9.2,27.1,13.3,43,11.8
				c5.5-0.5,10.7-1.8,15.8-3.8c0.9-0.3,1-0.8,0.8-1.6c-2.4-12.5-5.6-24.7-9.8-36.7C1174.2,692.1,1173.1,689.4,1172.1,686.5z
				 M1168,676.3c-1.6-3.2-3.1-6.3-4.7-9.4c-0.1-0.2-0.7-0.3-1-0.2c-1,0.2-2,0.6-3,0.9c-9.5,2.5-19.1,4.6-28.9,5.6
				c-5.4,0.6-10.8,1.2-16.2,1.6c-4.1,0.3-8.3,0.2-12.5,0.3c-0.9,0-1.3,0.3-1.2,1.2c0.3,3.2,0.3,6.5,0.8,9.7
				c1.5,10,5.3,19.1,11.4,27.3c1,1.3,2.1,2.6,3.3,4C1128.9,697.8,1145.4,683.5,1168,676.3z M1157.8,657c-0.2-0.5-0.3-0.7-0.4-0.9
				c-6.5-11.5-13.6-22.5-21.2-33.2c-0.4-0.6-0.9-0.7-1.6-0.4c-17,8.4-27.9,21.8-32.5,40.2c-0.3,1.3-0.3,1.4,1.1,1.4
				c3.4-0.1,6.8-0.2,10.1-0.5c4.8-0.3,9.6-0.6,14.4-1.2c5.5-0.7,10.9-1.6,16.3-2.5C1148.6,659,1153.1,658,1157.8,657z M1147.5,617.5
				c0.2,0.4,0.3,0.5,0.4,0.7c7.8,10.9,15.1,22.1,21.7,33.8c0.4,0.8,0.9,0.7,1.6,0.5c6.1-2.4,11.8-5.4,17.2-9.1
				c4.7-3.2,9-6.8,12.7-11.2c0.4-0.5,0.9-0.9,0.1-1.6c-6.1-5.1-12.9-9-20.4-11.4c-9-2.9-18.2-3.6-27.5-2.7
				C1151.3,616.6,1149.5,617.1,1147.5,617.5z M1222.6,675.8c-0.6-14.1-5.1-26.5-13.9-37.4c-4.5,5.5-9.7,10-15.4,14
				c-5.7,4-11.8,7.2-18.2,9.9c0.2,0.4,0.3,0.8,0.5,1.1c1.4,3,2.8,6.1,4.1,9.1c0.5,1.1,1.1,1.4,2.2,1.3c3.7-0.3,7.4-0.6,11.2-0.7
				c3.9,0,7.8,0.1,11.6,0.4c4.2,0.3,8.4,0.9,12.6,1.4C1219,675.2,1220.7,675.5,1222.6,675.8z M1195.6,726.9c0.5-0.3,0.8-0.5,1.1-0.7
				c5.1-3.7,9.5-8,13.3-13c5.8-7.7,9.6-16.3,11.4-25.8c0.1-0.7,0-1-0.7-1.2c-7-1.9-14.1-2.9-21.3-3.2c-3.2-0.1-6.5,0.1-9.7,0.2
				c-1.9,0.1-3.8,0.4-5.8,0.7C1188.9,698.1,1193,712.2,1195.6,726.9z"/>
		</g>
	</g>
</g>
<g id="TEKS">
	<g id="XMLID_46_">
		
			<text id="XMLID_49_" transform="matrix(1 0 0 1 425.522 161.66)" fill="#FFFFFF" font-family="'PerfectlyTogether'" font-size="49.5px">SOCIAL MEDIA ICON SET</text>
		<circle id="XMLID_48_" fill="#FFFFFF" cx="385" cy="143" r="7"/>
		<circle id="XMLID_47_" fill="#FFFFFF" cx="998.4" cy="143" r="7"/>
	</g>
</g>
</svg>
